<?xml version="1.0" encoding="utf-8"?>
<!-- Generator: Adobe Illustrator 25.4.1, SVG Export Plug-In . SVG Version: 6.00 Build 0)  -->
<svg version="1.0" id="katman_1" xmlns="http://www.w3.org/2000/svg" xmlns:xlink="http://www.w3.org/1999/xlink" x="0px" y="0px"
	 viewBox="0 0 1024 768" style="enable-background:new 0 0 1024 768;" xml:space="preserve">
<style type="text/css">
	.st0{clip-path:url(#SVGID_00000156575089489579058150000007335052670870703757_);fill:#5E9732;}
	.st1{clip-path:url(#SVGID_00000156575089489579058150000007335052670870703757_);fill:#FFFFFF;}
	
		.st2{clip-path:url(#SVGID_00000156575089489579058150000007335052670870703757_);fill-rule:evenodd;clip-rule:evenodd;fill:#5E9732;}
</style>
<g>
	<defs>
		<rect id="SVGID_1_" x="91.6" y="118.6" width="841" height="531.5"/>
	</defs>
	<clipPath id="SVGID_00000057114370006797382540000018252228070755793542_">
		<use xlink:href="#SVGID_1_"  style="overflow:visible;"/>
	</clipPath>
	<path style="clip-path:url(#SVGID_00000057114370006797382540000018252228070755793542_);fill:#5E9732;" d="M91.6,118.6v220.1
		c0,47.8,46.5,167,181.8,167h477.4c135.4,0,181.8-119.1,181.8-167V118.6H91.6z"/>
	<path style="clip-path:url(#SVGID_00000057114370006797382540000018252228070755793542_);fill:#FFFFFF;" d="M600.8,216.1
		c-7.7,10-14.3,21.1-19.3,33.1c-8,18.9-12.5,40.1-12.5,62.8c0,22.7,4.4,43.9,12.5,62.8c-7.4,12.8-41.4,58-103.8,58
		c-64.6,0-104.8-49-115.1-81.9h-36.1c12.1,49.8,63.1,116.9,152.6,116.9c92.7,0,129.7-68.5,141.1-93c21.5-45.9,61-75.2,112.3-75.2
		h2.6l0-34.6l-2.5,0c-52.7,0-99.3,24.7-127.4,64.7c-0.7-5.7-1.1-11.6-1.1-17.7c0-23.7,5.9-45,16.2-62.8c20.8-35.9,59.6-58,104.2-58
		l120.4,0V312c0,71.4-53.6,120.8-120.4,120.8c-35.6,0-67.5-14.1-89.5-38c-5.4,10.6-11.9,20.5-19.3,29.6c28.1,27,66.5,43,108.8,43
		c85.7,0,155.4-65.5,155.4-155.4V156.6H724.4C674.1,156.6,629.3,179.2,600.8,216.1"/>
	<path style="clip-path:url(#SVGID_00000057114370006797382540000018252228070755793542_);fill:#FFFFFF;" d="M335.8,432.6h-76.6
		c-49.8,0-90.2-40.4-90.2-91.5v-13.9h188.7c-0.6-4.9-0.8-10-0.8-15.1c0-71.4,53.6-120.8,120.5-120.8c32,0,61,11.4,82.6,31.1
		c4.8-8.9,10.2-17.3,16.3-25.2l3-3.8c-27.3-23.2-62.9-36.7-101.8-36.7c-79.3,0-144.9,56.1-154.3,135.7H169V191.4h166.8v-34.9H133.7
		l0.2,185.9c0,69.2,56.1,125.3,125.3,125.3l76.6-0.2V432.6z"/>
	<path style="clip-path:url(#SVGID_00000057114370006797382540000018252228070755793542_);fill:#5E9732;" d="M182.9,558.1h-37v90.5
		h19.9v-27.1h15.1c20.3,0,36.6-10.9,36.6-31.8C217.5,570.9,204.5,558.1,182.9,558.1 M197.4,590c0,7.8-5.8,13.7-15.8,13.7h-15.8
		v-27.7h15.4c9.9,0,16.2,4.8,16.2,13.7V590z"/>
	<path style="clip-path:url(#SVGID_00000057114370006797382540000018252228070755793542_);fill:#5E9732;" d="M307.8,588.2
		c0-18.9-12.8-30.1-34.1-30.1h-41.4v90.5h19.9v-29h15.6l19.4,29h23.3l-22.1-32.3C299.9,612,307.8,602.8,307.8,588.2 M287.6,589.3
		c0,7.6-5.6,12.8-15.2,12.8h-20.2v-26H272c9.7,0,15.6,4.4,15.6,12.9V589.3z"/>
	<path style="clip-path:url(#SVGID_00000057114370006797382540000018252228070755793542_);fill:#5E9732;" d="M369.9,556.5
		c-27.9,0-48.2,21.1-48.2,46.8c0,26,20,46.8,48,46.8c27.9,0,48.2-21.1,48.2-46.8C417.9,577.4,397.9,556.5,369.9,556.5 M397.1,603.6
		c0,15.5-11.1,28.2-27.1,28.2c-16,0-27.4-12.9-27.4-28.4c0-15.8,11.1-28.4,27.1-28.4c16,0,27.4,12.9,27.4,28.4V603.6z"/>
	<path style="clip-path:url(#SVGID_00000057114370006797382540000018252228070755793542_);fill:#5E9732;" d="M594.2,631.6h-19.5
		c-12.2,0-19.5-7.6-19.5-22.3v-51.2h-19.9v51.7c0,26.6,14.8,40.2,39.1,40.2h39.7v-91.9h-19.9V631.6z"/>
	<path style="clip-path:url(#SVGID_00000057114370006797382540000018252228070755793542_);fill:#5E9732;" d="M677.5,631.8
		c-15.5,0-26.2-12.9-26.2-28.4c0-15.8,11-28.4,26.2-28.4c9,0,16.1,3.9,23.1,10.2l12.7-14.6c-8.4-8.3-18.6-14-35.6-14
		c-27.8,0-47.2,21.1-47.2,46.8c0,26.2,19.8,46.8,46.4,46.8c17.5,0,27.8-6.2,37.1-16.2l-12.7-12.8
		C694.1,627.6,687.8,631.8,677.5,631.8"/>
	<polygon style="clip-path:url(#SVGID_00000057114370006797382540000018252228070755793542_);fill:#5E9732;" points="723.3,576.5 
		750.9,576.5 750.9,648.6 770.8,648.6 770.8,576.5 798.3,576.5 798.3,558.1 723.3,558.1 	"/>
	<path style="clip-path:url(#SVGID_00000057114370006797382540000018252228070755793542_);fill:#5E9732;" d="M850.3,594.4
		c-15.7-4-19.5-6-19.5-11.9c0-4.6,4-8.2,11.6-8.2c7.6,0,15.5,3.4,23.5,8.9l10.4-15c-9.2-7.4-20.4-11.5-33.6-11.5
		c-18.5,0-31.7,10.8-31.7,27.3c0,18.2,11.7,23.3,30,27.9c15.1,3.9,18.2,6.5,18.2,11.5c0,5.5-4.9,8.8-13,8.8c-10.3,0-18.9-4.3-27-11
		l-11.8,14.1c10.9,9.7,24.7,14.5,38.4,14.5c19.5,0,33.2-10.1,33.2-28C879,605.8,868.6,599.2,850.3,594.4"/>
	<path style="clip-path:url(#SVGID_00000057114370006797382540000018252228070755793542_);fill:#5E9732;" d="M470.9,558.1h-35.3
		v90.5h35.3c28.4,0,48.1-19.8,48.1-45.3C519,577.6,499.3,558.1,470.9,558.1 M498.2,603.6c0,16-11,27-27.3,27h-15.4v-54.6h15.4
		c16.3,0,27.3,11.3,27.3,27.3V603.6z"/>
	
		<path style="clip-path:url(#SVGID_00000057114370006797382540000018252228070755793542_);fill-rule:evenodd;clip-rule:evenodd;fill:#5E9732;" d="
		M929.4,571.4c0-9.6-7.6-17.5-17.5-17.5s-17.6,8-17.6,17.6c0,9.6,7.6,17.5,17.5,17.5C921.7,589,929.4,581,929.4,571.4 M927,571.4
		c0,8.4-6.5,15.2-15.1,15.2c-8.6,0-15-6.7-15-15.1s6.5-15.2,15.1-15.2C920.5,556.3,927,563,927,571.4 M920.1,567.6
		c0-3.7-2.8-5.8-7.1-5.8h-8.2v18.3h3.5v-6.3h3.8l4.4,6.3h4.2l-4.9-6.9C918.3,572.5,920.1,570.6,920.1,567.6 M916.5,567.8
		c0,1.8-1.3,2.9-3.6,2.9h-4.5v-5.8h4.5C915.2,564.9,916.5,565.9,916.5,567.8"/>
</g>
</svg>
